<svg width="128" height="128" viewBox="0 0 128 128" fill="none" xmlns="http://www.w3.org/2000/svg">
<path d="M73.1495 0.917969C78.9447 -0.0191318 85.679 0.678092 92.0636 2.44336C98.4588 4.21158 104.544 7.06258 109.024 10.4648C120.06 18.848 125.653 30.5407 127.129 43.4844C129.327 62.7507 121.626 82.75 108.208 98.3984C94.7884 114.049 75.6087 125.396 54.7726 127.321L54.7628 127.322C40.0244 128.389 27.2827 124.612 17.8497 117.134C8.415 109.654 2.32511 98.5009 0.846802 84.8877C-1.25358 65.546 6.33073 45.4932 19.6632 29.8184C32.9952 14.1441 52.1122 2.8025 73.1495 0.917969ZM100.948 28.4102C93.1514 29.0023 87.9261 33.6236 83.9122 40.3965C79.8839 47.1936 77.1256 56.0756 74.2443 65.0547C71.3736 74.0007 68.3826 83.0389 63.8829 90.0146C59.3684 97.0135 53.3025 101.985 44.2911 102.714C38.7377 103.163 33.4377 102.1 29.4767 99.4824C25.4976 96.8532 22.9013 92.6745 22.7667 87.001C22.5853 79.3551 25.2097 71.9377 28.1183 64.6387C31.0399 57.3069 34.241 50.1076 35.3468 42.7725V42.7715C35.6601 40.6934 35.3747 39.1047 34.7491 37.9736C34.1268 36.8485 33.1471 36.1365 31.9855 35.834C29.6463 35.225 26.4888 36.2746 24.1476 39.2051L24.1466 39.208C16.2918 48.934 10.7519 62.6969 10.0616 76.1387C9.38267 89.3626 13.3952 102.216 24.4366 110.65L24.9679 111.049V111.05C29.1885 114.166 34.0877 116.397 39.3282 117.591C53.9179 120.212 66.0471 117.47 78.8732 110.682C77.8279 109.9 76.9699 109.172 76.1769 107.984L75.9884 107.69C74.2323 104.853 74.02 101.502 74.464 98.2139C74.9079 94.9257 76.0176 91.6325 76.9718 88.8711C78.9021 83.2851 80.8797 77.7143 82.8546 72.1445C84.8297 66.5743 86.8021 61.0047 88.7247 55.418V55.417C90.1951 51.1476 91.8569 45.7329 94.5997 41.8682L94.6974 41.7295L94.8595 41.6797L105.221 38.4727L105.412 38.4131L105.592 38.5029C106.04 38.7267 106.17 39.2011 106.198 39.5908C106.228 40.0014 106.161 40.4991 106.045 41.0283C105.812 42.0949 105.345 43.437 104.827 44.7822C104.308 46.131 103.726 47.5143 103.259 48.6572C103.024 49.2314 102.819 49.7441 102.662 50.167C102.502 50.599 102.405 50.9062 102.371 51.084L102.364 51.1191L102.354 51.1533C99.0709 60.7953 95.601 70.3643 92.2667 79.9814L92.2677 79.9824C91.2566 83.053 90.041 86.1517 88.924 89.2285C87.8027 92.3167 86.7726 95.4025 86.1075 98.501C85.91 99.4208 85.8441 100.358 85.9191 101.188C85.9948 102.024 86.21 102.71 86.5372 103.165C86.8481 103.597 87.2613 103.83 87.8263 103.807C88.4282 103.782 89.2617 103.462 90.3566 102.619C108.424 88.7038 120.649 64.8032 117.482 42.9434C116.654 37.2318 113.374 31.3419 107.602 29.3848C105.278 28.617 103.425 28.3642 100.948 28.4102ZM105.897 19.9062C96.8251 12.2165 86.0405 8.30716 73.4513 9.87988H73.4484C59.0801 11.5674 45.7289 17.6093 35.4523 27.0469C36.8847 27.3102 38.4278 27.6884 39.8556 28.2783C41.6224 29.0083 43.2584 30.0798 44.2726 31.6982C47.9463 37.5627 47.1753 44.5626 45.1505 51.4248C44.1356 54.8641 42.7951 58.3031 41.5099 61.583C40.2208 64.8726 38.9905 67.9947 38.1759 70.8359V70.8369C37.6784 72.5715 36.8693 74.7661 36.1456 77.0215C35.4129 79.3052 34.7484 81.7027 34.4943 83.957C34.2397 86.216 34.404 88.2742 35.2677 89.917C36.118 91.5339 37.6849 92.821 40.3986 93.4805C44.5812 94.3094 48.6707 92.1452 51.5353 89.1562C55.4987 84.092 57.2603 79.0198 59.4357 73.0479C61.531 67.1895 63.5866 61.3167 65.6027 55.4355L65.6036 55.4326C70.9063 40.2693 77.1925 23.4449 97.0607 19.9619C99.5532 19.5245 103.05 19.5178 105.897 19.9062Z" fill="black" stroke="black"/>
</svg>
