<svg width="554" height="120" viewBox="0 0 554 120" fill="none" xmlns="http://www.w3.org/2000/svg">
<path d="M68.614 1.37213C79.3103 -0.367434 93.6028 3.93323 101.882 10.2218C112.102 17.9858 117.287 28.8155 118.658 40.835C122.74 76.6162 90.0595 115.271 51.3068 118.851C23.8964 120.836 4.05044 104.793 1.30598 79.516C-2.59539 43.5856 29.4785 4.87279 68.614 1.37213ZM94.5767 26.1922C64.5114 28.46 74.511 93.1288 41.4939 95.7995C31.2419 96.6292 22.0852 91.8531 21.8403 81.5361C21.5054 67.4221 31.5264 54.063 33.6182 40.1838C34.8374 32.0996 26.8562 30.7765 22.2994 36.4808C7.46354 54.8529 1.39417 88.4296 23.1551 104.451C27.1658 107.413 31.8195 109.532 36.7954 110.663C50.8357 113.187 62.4698 110.449 74.8012 103.795C73.4569 102.811 72.5046 102.109 71.6202 100.682C68.4916 95.6261 70.7962 88.6328 72.5864 83.4515C76.2009 72.9901 79.9916 62.5841 83.595 52.1121C84.9841 48.0781 86.5169 43.0893 89.0369 39.5383L98.7422 36.5336C100.265 37.2949 95.7889 46.1337 95.4738 47.8145C92.3976 56.8511 89.1538 65.8023 86.0259 74.8256C84.1372 80.5619 81.5017 86.3517 80.2421 92.2214C79.4674 95.8285 80.723 99.8141 84.9655 96.5488C101.99 83.4353 113.548 60.8905 110.551 40.2078C109.761 34.7596 106.619 29.0391 100.98 27.1287C98.7435 26.3897 96.9531 26.1468 94.5767 26.1922ZM100.814 19.45C91.9741 11.4405 81.3222 7.2706 68.7878 8.83669C54.9092 10.4669 42.0303 16.4038 32.24 25.686C35.3846 26.1769 39.3605 27.1852 41.1174 29.9893C47.7757 40.6188 38.4352 55.5251 35.3538 66.2746C33.4946 72.758 27.1665 85.5063 37.7904 88.0756C41.9367 88.8998 45.9291 86.7437 48.6722 83.8732C52.4483 79.0547 54.1222 74.2253 56.158 68.6357C58.1216 63.145 60.0477 57.6405 61.937 52.1284C66.9168 37.8864 72.733 22.4176 91.0404 19.2079C93.8368 18.717 98.0412 18.8176 100.814 19.45Z" fill="black"/>
<path d="M68.4888 0.396414C74.0086 -0.494596 80.3908 0.17216 86.4164 1.83822C92.4564 3.50827 98.2189 6.2039 102.477 9.43821C112.944 17.3896 118.239 28.4816 119.635 40.7238C121.714 58.9452 114.431 77.8174 101.792 92.5588C89.1499 107.304 71.0681 118.013 51.3976 119.83L51.3871 119.831L51.3775 119.832C37.4628 120.84 25.3963 117.274 16.4461 110.177C7.49223 103.078 1.72616 92.5 0.327912 79.6219C-1.65764 61.3344 5.51269 42.4136 18.0721 27.6457C30.627 12.8833 48.6402 2.18333 68.4888 0.396414ZM101.882 10.2218C93.6028 3.93323 79.3103 -0.367434 68.614 1.37213C29.4785 4.87279 -2.59539 43.5856 1.30598 79.516C4.00761 104.398 23.2803 120.332 50.0271 118.931L51.3068 118.851C89.7569 115.299 122.229 77.2178 118.747 41.6738L118.658 40.835C117.309 29.0032 112.263 18.3246 102.357 10.588L101.882 10.2218ZM94.5767 26.1922C96.9531 26.1468 98.7435 26.3897 100.98 27.1287C106.619 29.0391 109.761 34.7596 110.551 40.2078C113.548 60.8905 101.99 83.4353 84.9655 96.5488L84.5762 96.8343C80.7733 99.4771 79.5692 95.9574 80.1754 92.5607L80.2421 92.2214C81.5017 86.3517 84.1372 80.5619 86.0259 74.8256C88.7628 66.9303 91.5887 59.0902 94.3132 51.1997L95.4738 47.8145C95.7889 46.1337 100.265 37.2949 98.7422 36.5336L89.0369 39.5383L88.8031 39.8756C86.421 43.4004 84.9407 48.2043 83.595 52.1121L82.2356 56.0362C79.0466 65.1864 75.7491 74.2978 72.5864 83.4515L72.246 84.443C70.5292 89.4991 68.6871 95.9421 71.6202 100.682C72.5046 102.109 73.4569 102.811 74.8012 103.795C62.4698 110.449 50.8357 113.187 36.7954 110.663C31.8195 109.532 27.1658 107.413 23.1551 104.451C1.73438 88.68 7.28074 55.8981 21.6104 37.3532L22.2994 36.4808C26.8562 30.7765 34.8374 32.0996 33.6182 40.1838L33.5142 40.8343C31.2154 54.4808 21.5106 67.6428 21.8403 81.5361C22.0815 91.6918 30.958 96.4786 41.0143 95.8343L41.4939 95.7995C74.511 93.1288 64.5114 28.46 94.5767 26.1922ZM94.6196 27.175C87.5559 27.719 82.795 31.8962 79.0882 38.1514C75.3514 44.4576 72.784 52.7125 70.0783 61.1454C67.3935 69.513 64.5733 78.0467 60.3154 84.6485C56.0279 91.2961 50.2194 96.0801 41.5733 96.7795C36.2882 97.2072 31.2016 96.199 27.3721 93.6682C23.5073 91.1141 20.9877 87.0457 20.8574 81.5594C20.6847 74.2807 23.1817 67.244 25.9055 60.4077C28.6551 53.5067 31.6215 46.8339 32.6459 40.037C32.9272 38.1718 32.6623 36.8043 32.1446 35.8682C31.6333 34.9436 30.8351 34.3627 29.877 34.1132C27.9293 33.606 25.1666 34.4669 23.0674 37.0948L23.0645 37.0986C15.7736 46.1274 10.626 58.9171 9.98518 71.3975C9.34524 83.862 13.1962 95.8975 23.7378 103.659L23.7397 103.66C27.6333 106.535 32.1546 108.596 36.9939 109.699C50.249 112.077 61.3107 109.686 72.9769 103.645C72.2459 103.053 71.5868 102.413 70.9715 101.492L70.7842 101.2C69.0506 98.3984 68.8602 95.1213 69.284 91.9824C69.7077 88.8441 70.7649 85.7127 71.6573 83.1299C75.3006 72.5853 79.0403 62.3253 82.6649 51.7914C84.0291 47.8298 85.6113 42.6654 88.2345 38.9689L88.4276 38.697L88.7465 38.599L98.4517 35.5944L98.8282 35.4772L99.1817 35.654C99.8538 35.99 100.003 36.6805 100.033 37.0977C100.065 37.556 99.991 38.0791 99.879 38.5914C99.6514 39.6315 99.2011 40.9199 98.7149 42.1829C98.2261 43.4528 97.6763 44.7579 97.2416 45.8215C97.022 46.3587 96.8328 46.8326 96.6893 47.2201C96.5392 47.6258 96.4629 47.8765 96.4406 47.9953L96.4271 48.0645L96.405 48.1317C93.33 57.1647 90.0747 66.1486 86.9552 75.1476C86.006 78.0286 84.8608 80.9491 83.8223 83.809C82.7738 86.6963 81.8194 89.5608 81.2041 92.4281C81.0285 93.2458 80.971 94.0713 81.036 94.7902C81.1024 95.524 81.2883 96.064 81.521 96.3876C81.7214 96.6661 81.9489 96.7887 82.2875 96.7747C82.6475 96.7597 83.2127 96.5831 84.0095 96.0303L84.3659 95.769C101.177 82.8192 112.512 60.6014 109.578 40.3492C108.818 35.1041 105.82 29.8073 100.665 28.0607C98.5532 27.3637 96.8796 27.1338 94.6196 27.175ZM68.7878 8.83669C81.3222 7.2706 91.9741 11.4405 100.814 19.45C98.0412 18.8176 93.8368 18.717 91.0404 19.2079L90.191 19.3676C72.5514 22.9011 66.839 38.1091 61.937 52.1284L60.5132 56.261C59.0824 60.3919 57.6307 64.5176 56.158 68.6357C54.1222 74.2253 52.4483 79.0547 48.6722 83.8732C46.0149 86.6538 42.1851 88.7639 38.179 88.144L37.7904 88.0756C27.4988 85.5864 33.1158 73.5446 35.1671 66.9002L35.3538 66.2746C38.4352 55.5251 47.7757 40.6188 41.1174 29.9893C39.3605 27.1852 35.3846 26.1769 32.24 25.686C41.7244 16.6938 54.1074 10.8412 67.4899 9.00212L68.7878 8.83669ZM97.5835 18.0055C89.4641 11.6027 79.9364 8.43509 68.9094 9.81283L68.9027 9.81379C55.8981 11.3413 43.7961 16.7072 34.3584 25.081C35.4245 25.3165 36.5291 25.6286 37.5749 26.0608C39.2827 26.7665 40.9222 27.8254 41.9507 29.467C45.5153 35.1576 44.7376 41.9047 42.8314 48.3651C41.8735 51.6118 40.6093 54.854 39.4065 57.9237C38.3475 60.6263 37.3409 63.1844 36.6001 65.5458L36.2994 66.5457C35.8322 68.1752 35.0588 70.2796 34.393 72.3552C33.7094 74.4863 33.0998 76.6929 32.8678 78.7526C32.6347 80.8218 32.7966 82.631 33.5372 84.0395C34.2521 85.3987 35.5808 86.5234 38.0014 87.1133C41.6653 87.8326 45.3133 85.9465 47.9276 83.2269C51.5698 78.5647 53.1944 73.8979 55.2337 68.2988C57.1951 62.8141 59.1196 57.3159 61.0069 51.8097L61.0088 51.8039C65.9613 37.6404 71.928 21.5601 90.87 18.2389C92.7716 17.9051 95.2706 17.8338 97.5835 18.0055Z" fill="black"/>
<path d="M177.855 104.46C170.617 104.46 164.283 103.201 158.854 100.682C153.504 98.0857 149.019 94.6627 145.4 90.4135C141.781 86.0856 139.066 81.2462 137.257 75.8953C135.447 70.5444 134.542 65.0755 134.542 59.4885C134.542 53.9803 135.447 48.5507 137.257 43.1998C139.066 37.8489 141.781 33.0488 145.4 28.7996C149.019 24.4717 153.504 21.0487 158.854 18.5306C164.283 16.0126 170.617 14.7535 177.855 14.7535C183.914 14.7535 189.067 15.5404 193.316 17.1142C197.643 18.6093 201.223 20.5766 204.056 23.0159C206.967 25.3766 209.288 27.934 211.019 30.6882C212.829 33.3636 214.166 35.921 215.032 38.3604C215.897 40.7211 216.448 42.6883 216.684 44.2621C216.999 45.7572 217.156 46.5047 217.156 46.5047H199.099C199.099 46.5047 198.942 45.9933 198.627 44.9703C198.391 43.8687 197.879 42.5703 197.093 41.0752C196.306 39.5014 195.126 37.9669 193.552 36.4718C192.057 34.9767 190.011 33.7177 187.415 32.6947C184.897 31.5931 181.75 31.0423 177.973 31.0423C172.545 31.0423 167.981 32.4587 164.283 35.2915C160.664 38.0456 157.91 41.5867 156.022 45.9146C154.212 50.2425 153.307 54.7671 153.307 59.4885C153.307 64.2099 154.212 68.7739 156.022 73.1805C157.91 77.5084 160.664 81.0888 164.283 83.9216C167.981 86.6757 172.545 88.0528 177.973 88.0528C181.75 88.0528 184.897 87.5413 187.415 86.5184C190.011 85.4954 192.057 84.2364 193.552 82.7413C195.126 81.1675 196.306 79.633 197.093 78.1379C197.879 76.5641 198.391 75.2658 198.627 74.2428C198.942 73.2198 199.099 72.7083 199.099 72.7083H217.156C217.156 72.7083 216.999 73.4952 216.684 75.069C216.448 76.5641 215.897 78.5314 215.032 80.9707C214.166 83.3314 212.829 85.8888 211.019 88.643C209.288 91.3184 206.967 93.8758 204.056 96.3152C201.223 98.6759 197.643 100.643 193.316 102.217C189.067 103.712 183.914 104.46 177.855 104.46Z" fill="black"/>
<path d="M224.033 103.279V13.5732H241.972V49.6917H242.562C243.27 48.4326 244.293 47.0162 245.631 45.4424C247.047 43.8686 248.896 42.4916 251.178 41.3112C253.538 40.1309 256.528 39.5407 260.147 39.5407C265.025 39.5407 268.999 40.6817 272.067 42.9637C275.136 45.167 277.378 48.0392 278.794 51.5802C280.211 55.0426 280.919 58.7016 280.919 62.5574V103.279H262.98V65.6263C262.98 62.6361 262.154 60 260.501 57.718C258.928 55.436 256.371 54.295 252.83 54.295C250.155 54.295 248.031 54.9245 246.457 56.1836C244.883 57.4426 243.743 59.0557 243.034 61.023C242.326 62.9902 241.972 65.0755 241.972 67.2788V103.279H224.033Z" fill="black"/>
<path d="M299.377 32.2226C296.23 32.2226 293.672 31.239 291.705 29.2718C289.739 27.2258 288.755 24.8258 288.755 22.0717C288.755 19.1602 289.739 16.7208 291.705 14.7535C293.672 12.7076 296.23 11.6847 299.377 11.6847C302.367 11.6847 304.884 12.7076 306.93 14.7535C308.976 16.7208 309.998 19.1602 309.998 22.0717C309.998 24.8258 308.976 27.2258 306.93 29.2718C304.884 31.239 302.367 32.2226 299.377 32.2226ZM290.407 103.279V40.7211H308.346V103.279H290.407Z" fill="black"/>
<path d="M317.776 103.279V40.7211H335.715V49.2195H336.305C337.642 46.9375 339.649 44.7736 342.324 42.7277C344.999 40.603 348.658 39.5407 353.3 39.5407C358.02 39.5407 361.797 40.6424 364.63 42.8457C367.541 45.049 369.665 47.7638 371.003 50.9901H371.239C372.261 49.1802 373.599 47.4097 375.251 45.6785C376.982 43.8687 379.107 42.4129 381.624 41.3112C384.221 40.1309 387.25 39.5407 390.712 39.5407C395.039 39.5407 398.619 40.5243 401.452 42.4916C404.284 44.4588 406.369 47.0556 407.707 50.2818C409.123 53.4294 409.831 56.8131 409.831 60.4328V103.279H391.892V64.9181C391.892 61.8492 391.105 59.3311 389.532 57.3639C388.037 55.318 385.755 54.295 382.687 54.295C380.326 54.295 378.398 54.8852 376.904 56.0655C375.487 57.2459 374.425 58.7803 373.717 60.6689C373.088 62.4787 372.773 64.3673 372.773 66.3345V103.279H354.834V64.9181C354.834 61.8492 354.047 59.3311 352.474 57.3639C350.979 55.318 348.697 54.295 345.628 54.295C343.268 54.295 341.34 54.8852 339.845 56.0655C338.429 57.2459 337.367 58.7803 336.659 60.6689C336.029 62.4787 335.715 64.3673 335.715 66.3345V103.279H317.776Z" fill="black"/>
<path d="M456.152 104.46C452.139 104.46 448.835 103.83 446.238 102.571C443.642 101.233 441.635 99.8169 440.219 98.3218C438.882 96.8267 438.016 95.8037 437.623 95.2529H436.797V103.279H418.858V13.5732H436.797V48.7474H437.623C438.016 48.1966 438.882 47.1736 440.219 45.6785C441.635 44.1834 443.642 42.8063 446.238 41.5473C448.835 40.2096 452.139 39.5407 456.152 39.5407C460.794 39.5407 464.807 40.485 468.19 42.3736C471.652 44.1834 474.523 46.6621 476.805 49.8097C479.087 52.8786 480.778 56.3409 481.88 60.1967C483.06 64.0525 483.65 67.987 483.65 72.0001C483.65 76.0133 483.06 79.9478 481.88 83.8036C480.778 87.6594 479.087 91.161 476.805 94.3086C474.523 97.3775 471.652 99.8562 468.19 101.745C464.807 103.555 460.794 104.46 456.152 104.46ZM450.959 89.9413C454.185 89.9413 456.86 89.0758 458.984 87.3446C461.187 85.5347 462.8 83.2527 463.823 80.4986C464.925 77.7445 465.475 74.9117 465.475 72.0001C465.475 69.0886 464.925 66.2558 463.823 63.5017C462.8 60.7475 461.187 58.5049 458.984 56.7737C456.86 54.9639 454.185 54.0589 450.959 54.0589C447.733 54.0589 445.019 54.9639 442.816 56.7737C440.691 58.5049 439.078 60.7475 437.977 63.5017C436.954 66.2558 436.443 69.0886 436.443 72.0001C436.443 74.9117 436.954 77.7445 437.977 80.4986C439.078 83.2527 440.691 85.5347 442.816 87.3446C445.019 89.0758 447.733 89.9413 450.959 89.9413Z" fill="black"/>
<path d="M516.706 39.5407C520.719 39.5407 524.023 40.2096 526.62 41.5473C529.216 42.8063 531.183 44.1834 532.521 45.6785C533.937 47.1736 534.802 48.1966 535.117 48.7474H536.061V40.7211H554V103.279H536.061V95.2529H535.117C534.802 95.8037 533.937 96.8267 532.521 98.3218C531.183 99.8169 529.216 101.233 526.62 102.571C524.023 103.83 520.719 104.46 516.706 104.46C512.064 104.46 508.012 103.555 504.55 101.745C501.167 99.8562 498.334 97.3775 496.052 94.3086C493.771 91.161 492.04 87.6594 490.86 83.8036C489.758 79.9478 489.207 76.0133 489.207 72.0001C489.207 67.987 489.758 64.0525 490.86 60.1967C492.04 56.3409 493.771 52.8786 496.052 49.8097C498.334 46.6621 501.167 44.1834 504.55 42.3736C508.012 40.485 512.064 39.5407 516.706 39.5407ZM521.899 54.0589C518.673 54.0589 515.958 54.9639 513.755 56.7737C511.631 58.5049 510.018 60.7475 508.917 63.5017C507.894 66.2558 507.382 69.0886 507.382 72.0001C507.382 74.9117 507.894 77.7445 508.917 80.4986C510.018 83.2527 511.631 85.5347 513.755 87.3446C515.958 89.0758 518.673 89.9413 521.899 89.9413C525.125 89.9413 527.8 89.0758 529.924 87.3446C532.127 85.5347 533.74 83.2527 534.763 80.4986C535.864 77.7445 536.415 74.9117 536.415 72.0001C536.415 69.0886 535.864 66.2558 534.763 63.5017C533.74 60.7475 532.127 58.5049 529.924 56.7737C527.8 54.9639 525.125 54.0589 521.899 54.0589Z" fill="black"/>
</svg>
